# xmcd CD database file
#
# Track frame offsets:
#	150
#	17775
#	28913
#	50626
#	69001
#	94051
#	115501
#	136689
#	154014
#	176439
#	205239
#	216264
#	224814
#	239402
#	254027
#	264115
#	274090
#	285678
#
# Disc length: 3910 seconds
#
# Revision: 0
# Processed by: cddbd v1.5.2PL0 Copyright (c) Steve Scherf et al.
# Submitted via: CDex 1.51
#
DISCID=0c0f4412
DTITLE=Das Schokoladenhaus-Orchester Berlin - Schokoladenhaus-Musik der 20er
DYEAR=2011
DGENRE=Jazz
TTITLE0=Lovely to look at - Jerome Kern
TTITLE1=Im Chambre Séparée - Richard Heuberger
TTITLE2=Liebe kommt einmal von irgendwo her - Eduard Künecke
TTITLE3=Ich tanze mit Dir in den Himmel hinein - Friedrich Schroeder
TTITLE4=Die Marzipanpuppe - Carl Zimmer
TTITLE5=Ach Du kleiner Praliné-Soldat - Oscar Strauss
TTITLE6=Ramona - Mabel Wayne
TTITLE7=Wenn der weisse Flieder wieder blüht - Franz Doelle
TTITLE8=Nur wer die Sehnsucht kennt - Siegfried Translateuer
TTITLE9=Warum lächelst Du, Mona Lisa - Robert Stolz
TTITLE10=Yes Sir, that's my Baby - Walter Donaldson
TTITLE11=Swanee - George Gershwin
TTITLE12=Bummelpetrus - Werner-Kerstens
TTITLE13=Home in Pasadena - Harry Warren
TTITLE14=Mein kleiner grüner Kaktus - Bert Reisfeld
TTITLE15=Schiebermaxe - Walter Kollo
TTITLE16=Chocolate-Drops - Harry von Tilzer
TTITLE17=Alexander's Ragtime Band - Irving Berlin
EXTD=YEAR: 2011
EXTT0=
EXTT1=
EXTT2=
EXTT3=
EXTT4=
EXTT5=
EXTT6=
EXTT7=
EXTT8=
EXTT9=
EXTT10=
EXTT11=
EXTT12=
EXTT13=
EXTT14=
EXTT15=
EXTT16=
EXTT17=
PLAYORDER=
